<svg viewBox="0 0 900 900" xmlns="http://www.w3.org/2000/svg" preserveAspectRatio="xMidYMid slice">
<defs>
  <linearGradient id="goldFlow" x1="0%" y1="0%" x2="100%" y2="100%">
    <stop offset="0%" stop-color="#C99B4A" stop-opacity="0.9"/>
    <stop offset="50%" stop-color="#E0B96A" stop-opacity="0.6"/>
    <stop offset="100%" stop-color="#8a6a30" stop-opacity="0.9"/>
  </linearGradient>
  <linearGradient id="coolant" x1="0%" y1="0%" x2="0%" y2="100%">
    <stop offset="0%" stop-color="#E0B96A" stop-opacity="0.85"/>
    <stop offset="100%" stop-color="#C99B4A" stop-opacity="0.55"/>
  </linearGradient>
  <linearGradient id="glassPanel" x1="0%" y1="0%" x2="100%" y2="100%">
    <stop offset="0%" stop-color="#2a2c35" stop-opacity="0.9"/>
    <stop offset="100%" stop-color="#14151A" stop-opacity="0.95"/>
  </linearGradient>
  <radialGradient id="fanGlow" cx="50%" cy="50%" r="50%">
    <stop offset="0%" stop-color="#E0B96A" stop-opacity="0.55"/>
    <stop offset="70%" stop-color="#C99B4A" stop-opacity="0.15"/>
    <stop offset="100%" stop-color="#C99B4A" stop-opacity="0"/>
  </radialGradient>
</defs>

<rect x="0" y="0" width="900" height="900" fill="#0E0F13"/>

<g opacity="0.4">
  <line x1="0" y1="120" x2="900" y2="120" stroke="#2a2c35" stroke-width="1"/>
  <line x1="0" y1="780" x2="900" y2="780" stroke="#2a2c35" stroke-width="1"/>
  <line x1="660" y1="0" x2="660" y2="900" stroke="#2a2c35" stroke-width="1"/>
</g>

<g transform="translate(430,90)">

  <rect x="0" y="0" width="380" height="700" rx="10" fill="#1A1B22" stroke="#34363f" stroke-width="2"/>

  <rect x="14" y="14" width="280" height="672" rx="6" fill="url(#glassPanel)" stroke="#3a3c46" stroke-width="1.5"/>

  <g opacity="0.85">
    <line x1="14" y1="190" x2="294" y2="190" stroke="#3a3c46" stroke-width="1"/>
    <line x1="14" y1="240" x2="294" y2="240" stroke="#3a3c46" stroke-width="1"/>
  </g>

  <g>
    <rect x="34" y="36" width="240" height="140" rx="6" fill="#101116" stroke="#3a3c46" stroke-width="1.5"/>
    <circle cx="84" cy="73" r="26" fill="#101116" stroke="url(#goldFlow)" stroke-width="3"/>
    <circle cx="84" cy="73" r="26" fill="url(#fanGlow)"/>
    <g stroke="#C99B4A" stroke-width="2" opacity="0.85">
      <line x1="84" y1="55" x2="84" y2="91" transform="rotate(0 84 73)"/>
      <line x1="84" y1="55" x2="84" y2="91" transform="rotate(60 84 73)"/>
      <line x1="84" y1="55" x2="84" y2="91" transform="rotate(120 84 73)"/>
    </g>
    <circle cx="84" cy="73" r="6" fill="#0E0F13" stroke="#E0B96A" stroke-width="1.5"/>

    <circle cx="160" cy="73" r="26" fill="#101116" stroke="url(#goldFlow)" stroke-width="3"/>
    <circle cx="160" cy="73" r="26" fill="url(#fanGlow)"/>
    <g stroke="#C99B4A" stroke-width="2" opacity="0.85">
      <line x1="160" y1="55" x2="160" y2="91" transform="rotate(25 160 73)"/>
      <line x1="160" y1="55" x2="160" y2="91" transform="rotate(85 160 73)"/>
      <line x1="160" y1="55" x2="160" y2="91" transform="rotate(145 160 73)"/>
    </g>
    <circle cx="160" cy="73" r="6" fill="#0E0F13" stroke="#E0B96A" stroke-width="1.5"/>

    <circle cx="236" cy="73" r="26" fill="#101116" stroke="url(#goldFlow)" stroke-width="3"/>
    <circle cx="236" cy="73" r="26" fill="url(#fanGlow)"/>
    <g stroke="#C99B4A" stroke-width="2" opacity="0.85">
      <line x1="236" y1="55" x2="236" y2="91" transform="rotate(10 236 73)"/>
      <line x1="236" y1="55" x2="236" y2="91" transform="rotate(70 236 73)"/>
      <line x1="236" y1="55" x2="236" y2="91" transform="rotate(130 236 73)"/>
    </g>
    <circle cx="236" cy="73" r="6" fill="#0E0F13" stroke="#E0B96A" stroke-width="1.5"/>

    <rect x="44" y="116" width="220" height="46" rx="3" fill="#0a0a0d" stroke="#2a2c35" stroke-width="1"/>
    <text x="54" y="143" font-family="monospace" font-size="11" fill="#5C7A5E" letter-spacing="1">RADIATOR · 360MM AIO</text>
  </g>

  <g>
    <rect x="34" y="206" width="240" height="22" rx="3" fill="#101116" stroke="#3a3c46" stroke-width="1"/>
    <rect x="34" y="206" width="240" height="22" rx="3" fill="url(#coolant)" opacity="0.18"/>
    <circle cx="46" cy="217" r="3" fill="#E0B96A"/>
    <circle cx="262" cy="217" r="3" fill="#E0B96A"/>
  </g>

  <g>
    <rect x="46" y="256" width="120" height="150" rx="4" fill="#101116" stroke="#3a3c46" stroke-width="1.5"/>
    <g stroke="#2a2c35" stroke-width="1">
      <line x1="56" y1="276" x2="156" y2="276"/>
      <line x1="56" y1="296" x2="156" y2="296"/>
      <line x1="56" y1="316" x2="156" y2="316"/>
      <line x1="56" y1="336" x2="156" y2="336"/>
      <line x1="56" y1="356" x2="156" y2="356"/>
      <line x1="56" y1="376" x2="156" y2="376"/>
      <line x1="56" y1="396" x2="156" y2="396"/>
    </g>
    <rect x="46" y="256" width="120" height="150" rx="4" fill="none" stroke="url(#goldFlow)" stroke-width="1.5" opacity="0.5"/>
    <text x="56" y="270" font-family="monospace" font-size="10" fill="#7a7d8a" letter-spacing="0.5">GPU</text>
  </g>

  <g>
    <rect x="182" y="256" width="92" height="150" rx="4" fill="#101116" stroke="#3a3c46" stroke-width="1.5"/>
    <circle cx="228" cy="300" r="22" fill="none" stroke="url(#goldFlow)" stroke-width="2" opacity="0.7"/>
    <circle cx="228" cy="300" r="22" fill="url(#fanGlow)" opacity="0.5"/>
    <g stroke="#E0B96A" stroke-width="1.5" opacity="0.8">
      <line x1="228" y1="284" x2="228" y2="316" transform="rotate(15 228 300)"/>
      <line x1="228" y1="284" x2="228" y2="316" transform="rotate(75 228 300)"/>
      <line x1="228" y1="284" x2="228" y2="316" transform="rotate(135 228 300)"/>
    </g>
    <text x="192" y="270" font-family="monospace" font-size="10" fill="#7a7d8a" letter-spacing="0.5">PUMP</text>
    <g stroke="#2a2c35" stroke-width="1">
      <line x1="192" y1="350" x2="264" y2="350"/>
      <line x1="192" y1="368" x2="264" y2="368"/>
      <line x1="192" y1="386" x2="264" y2="386"/>
    </g>
  </g>

  <path d="M 166 270 C 184 270 184 270 182 280" fill="none" stroke="url(#coolant)" stroke-width="5" stroke-linecap="round" opacity="0.85"/>
  <path d="M 166 380 C 184 380 184 380 182 372" fill="none" stroke="url(#coolant)" stroke-width="5" stroke-linecap="round" opacity="0.85"/>
  <path d="M 220 256 C 220 240 220 232 200 228" fill="none" stroke="url(#coolant)" stroke-width="5" stroke-linecap="round" opacity="0.85"/>
  <path d="M 100 256 C 100 240 100 232 110 228" fill="none" stroke="url(#coolant)" stroke-width="5" stroke-linecap="round" opacity="0.85"/>

  <g opacity="0.9">
    <rect x="46" y="424" width="228" height="56" rx="3" fill="#101116" stroke="#3a3c46" stroke-width="1"/>
    <text x="56" y="444" font-family="monospace" font-size="10" fill="#7a7d8a" letter-spacing="0.5">PSU · 850W 80+ GOLD</text>
    <g stroke="#2a2c35" stroke-width="1">
      <line x1="56" y1="456" x2="264" y2="456"/>
      <line x1="56" y1="466" x2="264" y2="466"/>
    </g>
  </g>

  <g>
    <rect x="46" y="498" width="228" height="160" rx="3" fill="#101116" stroke="#2a2c35" stroke-width="1" opacity="0.5"/>
    <path d="M 60 510 C 90 540 70 570 100 600 C 130 630 110 645 140 645" fill="none" stroke="#C99B4A" stroke-width="2" opacity="0.35"/>
    <path d="M 260 510 C 230 540 250 570 220 600 C 190 630 210 645 180 645" fill="none" stroke="#C99B4A" stroke-width="2" opacity="0.25"/>
  </g>

  <rect x="160" y="-6" width="60" height="12" rx="3" fill="#1A1B22" stroke="#34363f" stroke-width="1.5"/>
  <circle cx="172" cy="0" r="2.5" fill="#5C7A5E"/>
  <circle cx="208" cy="0" r="2.5" fill="#E0B96A"/>

</g>

<rect x="0" y="0" width="900" height="900" fill="#0E0F13" opacity="0.55"/>
<linearGradient id="vignette" x1="0%" y1="0%" x2="100%" y2="0%">
  <stop offset="0%" stop-color="#0E0F13" stop-opacity="1"/>
  <stop offset="35%" stop-color="#0E0F13" stop-opacity="0.85"/>
  <stop offset="70%" stop-color="#0E0F13" stop-opacity="0.15"/>
  <stop offset="100%" stop-color="#0E0F13" stop-opacity="0"/>
</linearGradient>
<rect x="0" y="0" width="900" height="900" fill="url(#vignette)"/>

</svg>
